<svg width="46" height="9" viewBox="0 0 46 9" fill="none" xmlns="http://www.w3.org/2000/svg">
<path d="M42.2695 3.13477C41.9141 3.13477 41.5898 3.15039 41.2969 3.18164C41.0078 3.21289 40.7578 3.24609 40.5469 3.28125C40.3047 3.32422 40.0859 3.37109 39.8906 3.42188L40.0078 2.66602C40.0664 2.67383 40.1621 2.67969 40.2949 2.68359C40.4277 2.6875 40.5664 2.69141 40.7109 2.69531C40.8594 2.69531 40.998 2.69727 41.127 2.70117C41.2598 2.70117 41.3516 2.70117 41.4023 2.70117H44.1738C44.2207 2.70117 44.3066 2.70117 44.4316 2.70117C44.5605 2.69727 44.6973 2.69531 44.8418 2.69531C44.9863 2.69141 45.125 2.6875 45.2578 2.68359C45.3906 2.67969 45.4863 2.67383 45.5449 2.66602L45.6621 3.42188C45.4746 3.37109 45.2598 3.32422 45.0176 3.28125C44.8105 3.24609 44.5605 3.21289 44.2676 3.18164C43.9785 3.15039 43.6523 3.13477 43.2891 3.13477V6.58594C43.2891 6.9375 43.293 7.24414 43.3008 7.50586C43.3086 7.76758 43.3184 7.99414 43.3301 8.18555C43.3457 8.37305 43.3633 8.53125 43.3828 8.66016C43.4023 8.78906 43.4258 8.89453 43.4531 8.97656V9H42.0996V8.97656C42.127 8.89453 42.1504 8.78906 42.1699 8.66016C42.1895 8.53125 42.207 8.37305 42.2227 8.18555C42.2383 7.99414 42.25 7.76758 42.2578 7.50586C42.2656 7.24414 42.2695 6.9375 42.2695 6.58594V3.13477Z" fill="black"/>
<path d="M36.0352 5.94141C36.1133 5.95312 36.1914 5.96289 36.2695 5.9707C36.3516 5.97461 36.4297 5.97656 36.5039 5.97656C36.9922 5.97656 37.3613 5.8457 37.6113 5.58398C37.8652 5.32227 37.9922 4.92969 37.9922 4.40625C37.9922 3.97656 37.8906 3.63672 37.6875 3.38672C37.4883 3.13672 37.1934 3.01172 36.8027 3.01172C36.6777 3.01172 36.5664 3.01758 36.4688 3.0293C36.375 3.03711 36.2949 3.04688 36.2285 3.05859C36.1543 3.07422 36.0898 3.08984 36.0352 3.10547V5.94141ZM36.9316 6.32227C36.8535 6.33398 36.7754 6.3418 36.6973 6.3457C36.623 6.3457 36.5469 6.3457 36.4688 6.3457C36.4062 6.3457 36.3379 6.34375 36.2637 6.33984C36.1895 6.33594 36.1133 6.33008 36.0352 6.32227V6.60938C36.0352 6.95703 36.0391 7.26172 36.0469 7.52344C36.0547 7.78125 36.0645 8.00391 36.0762 8.19141C36.0918 8.37891 36.1094 8.53711 36.1289 8.66602C36.1484 8.79102 36.1719 8.89453 36.1992 8.97656V9H34.8457V8.97656C34.873 8.89453 34.8965 8.78906 34.916 8.66016C34.9395 8.53125 34.957 8.37305 34.9688 8.18555C34.9844 7.99414 34.9961 7.76758 35.0039 7.50586C35.0117 7.24414 35.0156 6.9375 35.0156 6.58594V5.10938C35.0156 4.75781 35.0117 4.45312 35.0039 4.19531C34.9961 3.93359 34.9844 3.70898 34.9688 3.52148C34.957 3.33008 34.9395 3.16992 34.916 3.04102C34.8965 2.91211 34.873 2.80664 34.8457 2.72461V2.70117C34.9082 2.70508 34.9746 2.70898 35.0449 2.71289C35.1035 2.7168 35.168 2.7207 35.2383 2.72461C35.3125 2.72461 35.3867 2.72461 35.4609 2.72461C35.5859 2.72461 35.7715 2.71289 36.0176 2.68945C36.2637 2.66602 36.5527 2.6543 36.8848 2.6543C37.2207 2.6543 37.5254 2.69531 37.7988 2.77734C38.0762 2.85938 38.3125 2.97656 38.5078 3.12891C38.707 3.28125 38.8594 3.4668 38.9648 3.68555C39.0742 3.9043 39.1289 4.14844 39.1289 4.41797C39.1289 4.62891 39.0996 4.82227 39.041 4.99805C38.9824 5.16992 38.9004 5.32617 38.7949 5.4668C38.6895 5.60352 38.5645 5.72461 38.4199 5.83008C38.2754 5.93555 38.1152 6.02734 37.9395 6.10547L39.1641 7.83398C39.2695 7.97461 39.375 8.10938 39.4805 8.23828C39.5898 8.36719 39.6934 8.48242 39.791 8.58398C39.8887 8.68555 39.9805 8.77148 40.0664 8.8418C40.1523 8.9082 40.2246 8.95312 40.2832 8.97656V9H38.748C38.748 8.96484 38.7227 8.9043 38.6719 8.81836C38.625 8.72852 38.5684 8.63672 38.502 8.54297C38.4395 8.44531 38.375 8.35156 38.3086 8.26172C38.2461 8.17188 38.1992 8.10547 38.168 8.0625L36.9316 6.32227Z" fill="black"/>
<path d="M31.9219 7.01953C31.8164 7.01953 31.6836 7.01953 31.5234 7.01953C31.3672 7.01953 31.1953 7.01953 31.0078 7.01953C30.8203 7.01953 30.627 7.01953 30.4277 7.01953C30.2285 7.01953 30.0391 7.02148 29.8594 7.02539C29.6797 7.02539 29.5156 7.02734 29.3672 7.03125C29.2188 7.03125 29.1035 7.03125 29.0215 7.03125L28.8047 7.48828C28.7109 7.67578 28.6309 7.83984 28.5645 7.98047C28.498 8.11719 28.4434 8.23828 28.4004 8.34375C28.3574 8.44922 28.3262 8.54102 28.3066 8.61914C28.2871 8.69336 28.2773 8.76367 28.2773 8.83008C28.2773 8.87305 28.2793 8.90625 28.2832 8.92969C28.2871 8.94922 28.293 8.96484 28.3008 8.97656V9H27.2695V8.97656C27.2969 8.94922 27.3398 8.89062 27.3984 8.80078C27.457 8.70703 27.5234 8.59375 27.5977 8.46094C27.6758 8.32812 27.7578 8.17773 27.8438 8.00977C27.9336 7.8418 28.0215 7.66797 28.1074 7.48828L30.498 2.55469H30.9375L33.2812 7.48828C33.3711 7.67578 33.4609 7.85547 33.5508 8.02734C33.6445 8.19922 33.7305 8.35352 33.8086 8.49023C33.8867 8.62305 33.9551 8.73438 34.0137 8.82422C34.0723 8.91016 34.1113 8.96094 34.1309 8.97656V9H32.6309C32.6387 8.96875 32.6426 8.94141 32.6426 8.91797C32.6426 8.89062 32.6426 8.86133 32.6426 8.83008C32.6426 8.74414 32.623 8.64062 32.584 8.51953C32.5488 8.39844 32.5039 8.27539 32.4492 8.15039C32.3984 8.02148 32.3438 7.89844 32.2852 7.78125C32.2305 7.66406 32.1855 7.56641 32.1504 7.48828L31.9219 7.01953ZM29.25 6.5625H29.6074C29.7715 6.5625 29.9453 6.5625 30.1289 6.5625C30.3164 6.55859 30.5039 6.55664 30.6914 6.55664C30.8789 6.55664 31.0605 6.55664 31.2363 6.55664C31.4121 6.55273 31.5703 6.55078 31.7109 6.55078L30.498 3.96094L29.25 6.5625Z" fill="black"/>
<path d="M15.5273 8.97656C15.5703 8.91406 15.6191 8.82227 15.6738 8.70117C15.7285 8.57617 15.7715 8.41992 15.8027 8.23242C15.8457 7.95898 15.8926 7.65234 15.9434 7.3125C15.998 6.96875 16.0527 6.60938 16.1074 6.23438C16.166 5.85938 16.2227 5.47656 16.2773 5.08594C16.3359 4.69141 16.3906 4.30469 16.4414 3.92578C16.4961 3.54297 16.5469 3.17578 16.5938 2.82422C16.6445 2.46875 16.6895 2.14453 16.7285 1.85156C16.7676 1.55859 16.7988 1.30469 16.8223 1.08984C16.8496 0.871094 16.8691 0.707031 16.8809 0.597656H17.625L21.3105 7.48828L24.9668 0.597656H25.5234L26.4844 7.55859C26.5117 7.77734 26.541 7.96484 26.5723 8.12109C26.6035 8.27734 26.6348 8.41211 26.666 8.52539C26.6973 8.63477 26.7266 8.72656 26.7539 8.80078C26.7852 8.87109 26.8145 8.92969 26.8418 8.97656V9H25.3652V8.97656C25.3848 8.93359 25.4023 8.86328 25.418 8.76562C25.4375 8.66797 25.4473 8.55078 25.4473 8.41406C25.4473 8.36328 25.4453 8.3125 25.4414 8.26172C25.4375 8.20703 25.4316 8.14844 25.4238 8.08594L24.6797 2.47266L21.2227 8.97656L20.8184 8.92969L17.3379 2.41406C17.2012 3.33984 17.082 4.19531 16.9805 4.98047C16.9375 5.31641 16.8945 5.65234 16.8516 5.98828C16.8086 6.32031 16.7695 6.63086 16.7344 6.91992C16.7031 7.20898 16.6777 7.46484 16.6582 7.6875C16.6387 7.90625 16.6289 8.06836 16.6289 8.17383C16.6289 8.30664 16.6328 8.42383 16.6406 8.52539C16.6484 8.62695 16.6562 8.71289 16.6641 8.7832C16.6758 8.86523 16.6875 8.9375 16.6992 9H15.5273V8.97656Z" fill="black"/>
<path d="M11.6133 6.31055L10.1016 8.2207C10.0469 8.28711 9.99219 8.35742 9.9375 8.43164C9.88672 8.50586 9.83984 8.57812 9.79688 8.64844C9.75391 8.71875 9.71875 8.78516 9.69141 8.84766C9.66797 8.90625 9.65625 8.95703 9.65625 9H8.66016V8.97656C8.72656 8.91406 8.81836 8.82812 8.93555 8.71875C9.05273 8.60547 9.17773 8.46289 9.31055 8.29102L11.2559 5.83008L9.3457 3.26367C9.23633 3.12695 9.13086 3.00977 9.0293 2.91211C8.92773 2.81055 8.85352 2.74805 8.80664 2.72461V2.70117H10.4766C10.4766 2.77148 10.5 2.88281 10.5469 3.03516C10.5977 3.18359 10.6973 3.35938 10.8457 3.5625L11.9238 5.03906L13.1602 3.48047C13.2109 3.41406 13.2617 3.34375 13.3125 3.26953C13.3633 3.19531 13.4082 3.12305 13.4473 3.05273C13.4863 2.98242 13.5176 2.91797 13.541 2.85938C13.5684 2.79688 13.582 2.74414 13.582 2.70117H14.5664V2.72461C14.5078 2.76758 14.4355 2.83203 14.3496 2.91797C14.2637 3.00391 14.1523 3.13477 14.0156 3.31055L12.2988 5.49609L14.3613 8.29102C14.498 8.47852 14.627 8.63281 14.748 8.75391C14.8691 8.87109 14.957 8.94531 15.0117 8.97656V9H13.3535C13.3535 8.92578 13.3262 8.81445 13.2715 8.66602C13.2207 8.51367 13.1211 8.33789 12.9727 8.13867L11.6133 6.31055Z" fill="black"/>
<path d="M6.51562 5.10938C6.51562 4.75781 6.51172 4.45312 6.50391 4.19531C6.49609 3.93359 6.48438 3.70898 6.46875 3.52148C6.45703 3.33008 6.43945 3.16992 6.41602 3.04102C6.39648 2.91211 6.37305 2.80664 6.3457 2.72461V2.70117H7.70508V2.72461C7.67773 2.80664 7.65234 2.91211 7.62891 3.04102C7.60938 3.16992 7.5918 3.33008 7.57617 3.52148C7.56445 3.70898 7.55469 3.93359 7.54688 4.19531C7.53906 4.45312 7.53516 4.75781 7.53516 5.10938V6.58594C7.53516 6.9375 7.53906 7.24414 7.54688 7.50586C7.55469 7.76758 7.56445 7.99414 7.57617 8.18555C7.5918 8.37305 7.60938 8.53125 7.62891 8.66016C7.65234 8.78906 7.67773 8.89453 7.70508 8.97656V9H6.3457V8.97656C6.37305 8.89453 6.39648 8.78906 6.41602 8.66016C6.43945 8.53125 6.45703 8.37305 6.46875 8.18555C6.48438 7.99414 6.49609 7.76758 6.50391 7.50586C6.51172 7.24414 6.51562 6.9375 6.51562 6.58594V5.10938Z" fill="black"/>
<path d="M2.07422 6.70898C2.07422 7.04102 2.07812 7.33203 2.08594 7.58203C2.09766 7.82812 2.10938 8.04102 2.12109 8.2207C2.13672 8.40039 2.1543 8.55078 2.17383 8.67188C2.19727 8.79297 2.2207 8.89453 2.24414 8.97656V9H0.837891V8.97656C0.861328 8.89453 0.882812 8.79297 0.902344 8.67188C0.925781 8.55078 0.945312 8.40039 0.960938 8.2207C0.976562 8.04102 0.988281 7.82812 0.996094 7.58203C1.00391 7.33203 1.00781 7.04102 1.00781 6.70898V2.89453C1.00781 2.5625 1.00391 2.27344 0.996094 2.02734C0.988281 1.77734 0.976562 1.5625 0.960938 1.38281C0.945312 1.19922 0.925781 1.04688 0.902344 0.925781C0.882812 0.804688 0.861328 0.703125 0.837891 0.621094V0.597656C1.16211 0.597656 1.49023 0.597656 1.82227 0.597656C2.1543 0.59375 2.47656 0.591797 2.78906 0.591797C3.10156 0.587891 3.39844 0.583984 3.67969 0.580078C3.96094 0.572266 4.21484 0.566406 4.44141 0.5625C4.66797 0.554688 4.85938 0.546875 5.01562 0.539062C5.17188 0.527344 5.2832 0.515625 5.34961 0.503906L5.0625 1.2832C4.93359 1.24805 4.7832 1.2168 4.61133 1.18945C4.46289 1.16602 4.28125 1.14453 4.06641 1.125C3.85547 1.10156 3.61133 1.08984 3.33398 1.08984C3.24023 1.08984 3.12305 1.09375 2.98242 1.10156C2.8418 1.10547 2.70312 1.11133 2.56641 1.11914C2.41016 1.12695 2.24609 1.13477 2.07422 1.14258V4.10156C2.47656 4.09766 2.8457 4.08594 3.18164 4.06641C3.51758 4.04688 3.80664 4.02734 4.04883 4.00781C4.33008 3.98438 4.58398 3.95703 4.81055 3.92578L4.63477 4.77539C4.3418 4.74023 4.04492 4.70703 3.74414 4.67578C3.48633 4.64844 3.20898 4.625 2.91211 4.60547C2.61523 4.58203 2.33594 4.57031 2.07422 4.57031V6.70898Z" fill="black"/>
</svg>
